
<svg xmlns="http://www.w3.org/2000/svg" viewBox="0 0 2019.59 588"><defs><style>.cls-1,.cls-2{fill:none;stroke:#fecf2f;stroke-width:20px;}.cls-1{stroke-linejoin:round;}.cls-2{stroke-miterlimit:10;}.cls-3{fill:#fff;}</style></defs><title>LumasticV16</title><g id="ENDLESS_Copy" data-name="ENDLESS Copy"><path class="cls-1" d="M147.41,150.05a142.2,142.2,0,0,0,27.7,102.19A141.64,141.64,0,0,0,249,177.34,141.78,141.78,0,0,0,147.41,150.05Z"/><path class="cls-1" d="M151.4,203.84a140.8,140.8,0,0,1-4-53.79,138.91,138.91,0,0,0-20.49,4A141.56,141.56,0,0,0,33.4,235.88,141.62,141.62,0,0,0,136.19,263a138.5,138.5,0,0,0,19.25-3.81,141.58,141.58,0,0,0,19.67-6.94A141.66,141.66,0,0,1,151.4,203.84Z"/><path class="cls-1" d="M255.14,85.24A141.05,141.05,0,0,0,231.4,36.81a141.61,141.61,0,0,0-84,113.24A141.78,141.78,0,0,1,249,177.34a141,141,0,0,0,6.12-92.1Z"/><circle class="cls-2" cx="291.28" cy="294" r="94.54"/><circle class="cls-2" cx="291.28" cy="294" r="275.86"/><path class="cls-1" d="M334.18,177.34a141.62,141.62,0,0,0,73.9,74.9,142.14,142.14,0,0,0,27.71-102.19A141.77,141.77,0,0,0,334.18,177.34Z"/><path class="cls-1" d="M408.08,252.24a142.51,142.51,0,0,0,19.67,6.94A138.63,138.63,0,0,0,447,263,141.64,141.64,0,0,0,549.8,235.88,141.56,141.56,0,0,0,456.28,154a139.17,139.17,0,0,0-20.49-4,142.14,142.14,0,0,1-27.71,102.19Z"/><path class="cls-1" d="M324,139.05a142.34,142.34,0,0,0,10.14,38.29,141.77,141.77,0,0,1,101.61-27.29,143.12,143.12,0,0,0-10.58-39.47A141.55,141.55,0,0,0,351.8,36.81,142.38,142.38,0,0,0,324,139.05Z"/><path class="cls-1" d="M249,410.94A141.71,141.71,0,0,0,175.11,336a142.2,142.2,0,0,0-27.7,102.19A141.78,141.78,0,0,0,249,410.94Z"/><path class="cls-1" d="M175.11,336a141.58,141.58,0,0,0-19.67-6.94,137,137,0,0,0-19.25-3.8A141.62,141.62,0,0,0,33.4,352.4a141.56,141.56,0,0,0,93.52,81.86,137.63,137.63,0,0,0,20.49,4A142.2,142.2,0,0,1,175.11,336Z"/><path class="cls-1" d="M259.16,449.23A142.71,142.71,0,0,0,249,410.94a141.78,141.78,0,0,1-101.61,27.29,141.61,141.61,0,0,0,84,113.24,142.38,142.38,0,0,0,27.76-102.24Z"/><path class="cls-1" d="M435.79,438.23A142.14,142.14,0,0,0,408.08,336a141.69,141.69,0,0,0-73.9,74.9A141.77,141.77,0,0,0,435.79,438.23Z"/><path class="cls-1" d="M431.8,384.44a140.8,140.8,0,0,1,4,53.79,137.87,137.87,0,0,0,20.49-4A141.56,141.56,0,0,0,549.8,352.4,141.63,141.63,0,0,0,447,325.3a137.15,137.15,0,0,0-19.26,3.8A142.51,142.51,0,0,0,408.08,336,141.5,141.5,0,0,1,431.8,384.44Z"/><path class="cls-1" d="M328.06,503a140.78,140.78,0,0,0,23.74,48.43,141.61,141.61,0,0,0,84-113.24,141.77,141.77,0,0,1-101.61-27.29,141,141,0,0,0-6.12,92.1Z"/></g><g id="Endless_V2" data-name="Endless V2"><path class="cls-3" d="M770.77,189.91h33.06V374h98.86v12.63H770.77Z"/><path class="cls-3" d="M953.19,234.93v108a21.78,21.78,0,0,0,2.66,10.55,29.44,29.44,0,0,0,7.15,8.64,34,34,0,0,0,10.55,5.9,38.57,38.57,0,0,0,13,2.16,27.61,27.61,0,0,0,9.63-1.91,45.15,45.15,0,0,0,10-5.23,60.38,60.38,0,0,0,9.14-7.81,47.19,47.19,0,0,0,7.14-9.47V234.93h30.08V386.62h-30.08V358.21a63.57,63.57,0,0,1-10,12.29,74.16,74.16,0,0,1-13,10.14A71,71,0,0,1,985,387.45a44,44,0,0,1-14,2.49,46.81,46.81,0,0,1-18.69-3.74,48.8,48.8,0,0,1-15.2-10.13,47.48,47.48,0,0,1-10.22-14.95,45,45,0,0,1-3.74-18.2v-108Z"/><path class="cls-3" d="M1087.77,234.93h30.07v28.41a113.75,113.75,0,0,1,13-12,112.35,112.35,0,0,1,14.95-10.05,89,89,0,0,1,15.54-6.9,46.69,46.69,0,0,1,14.62-2.57,41.72,41.72,0,0,1,13.62,2.4,47.3,47.3,0,0,1,22.85,16.87,31.6,31.6,0,0,1,5.56,12.79,50.18,50.18,0,0,1,10.39-12.46A75.73,75.73,0,0,1,1243,241.25a87.25,87.25,0,0,1,16.94-6.9,62.68,62.68,0,0,1,17.53-2.57,35,35,0,0,1,16,3.82,43.38,43.38,0,0,1,13.21,10.3,50,50,0,0,1,9,15.12,50.8,50.8,0,0,1,3.33,18.44V386.62H1288.8V283.78a33.69,33.69,0,0,0-2.16-12.13,33.22,33.22,0,0,0-5.9-10,28.26,28.26,0,0,0-8.64-6.81,22.62,22.62,0,0,0-10.38-2.49,50.64,50.64,0,0,0-12.63,1.66,58.77,58.77,0,0,0-12.29,4.65,61.28,61.28,0,0,0-10.64,6.89,34.66,34.66,0,0,0-7.64,8.4V386.62h-30.07V283.78a32.69,32.69,0,0,0-2.24-12.13,34.52,34.52,0,0,0-6-10,27.87,27.87,0,0,0-8.72-6.81,23.1,23.1,0,0,0-10.46-2.49,43.3,43.3,0,0,0-11.8,1.74,68.16,68.16,0,0,0-22.93,11.63,52.73,52.73,0,0,0-8.47,8.23V386.62h-30.07Z"/><path class="cls-3" d="M1465.41,386.62h-30.24V365.85q-5.33,4.15-10.47,8.39a84,84,0,0,1-11.13,7.73,63.56,63.56,0,0,1-13.29,5.73,58.11,58.11,0,0,1-17,2.24,43,43,0,0,1-16.2-2.91,34.43,34.43,0,0,1-19.93-20,40.44,40.44,0,0,1-2.74-14.95,38.9,38.9,0,0,1,3.9-17.61,49,49,0,0,1,10.63-14,77,77,0,0,1,15.62-11.05,154.2,154.2,0,0,1,19-8.64q10.14-3.81,20.77-6.72t20.77-5.57V279a62.11,62.11,0,0,0-2.08-17.36,30.22,30.22,0,0,0-5.9-11.47,21.65,21.65,0,0,0-9.22-6.31,36.56,36.56,0,0,0-12.21-1.91,33,33,0,0,0-12.46,2,19.43,19.43,0,0,0-7.56,5.24,17.69,17.69,0,0,0-3.74,7.31,35.35,35.35,0,0,0-1,8.39,42.92,42.92,0,0,1-.67,7.64A19.62,19.62,0,0,1,1378,279a12.38,12.38,0,0,1-4.57,4.49,14.84,14.84,0,0,1-7.4,1.66,14.38,14.38,0,0,1-11.38-5.07,18.7,18.7,0,0,1-4.4-12.71,23,23,0,0,1,4.9-14,42.22,42.22,0,0,1,13.29-11.3,77,77,0,0,1,19.52-7.47,97.53,97.53,0,0,1,23.43-2.74q15,0,25.25,2.9t16.7,8.14a29.86,29.86,0,0,1,9.22,12.71,46.82,46.82,0,0,1,2.83,16.62Zm-30.24-88.39a201.74,201.74,0,0,0-20.44,7.56,132,132,0,0,0-19.6,10.38,64.22,64.22,0,0,0-14.79,12.88q-5.82,7.06-5.81,15a27,27,0,0,0,2.07,10.46,30.09,30.09,0,0,0,5.49,8.73,27.25,27.25,0,0,0,7.81,6,20.07,20.07,0,0,0,9.22,2.24,34.54,34.54,0,0,0,9.72-1.33,48.92,48.92,0,0,0,8.88-3.57,73.33,73.33,0,0,0,8.64-5.32q4.32-3.07,8.81-6.39Z"/><path class="cls-3" d="M1554.13,379.47a32.83,32.83,0,0,0,11.38-1.91,29.31,29.31,0,0,0,9-5.06,24.9,24.9,0,0,0,5.9-7.15,17.3,17.3,0,0,0,2.16-8.3,21.13,21.13,0,0,0-3.49-12.13,37.82,37.82,0,0,0-9.22-9.31,80.18,80.18,0,0,0-13-7.56q-7.3-3.39-14.86-7t-14.87-7.73a65.44,65.44,0,0,1-13-9.64,44.17,44.17,0,0,1-9.22-12.62,38.32,38.32,0,0,1-3.49-16.95,37.24,37.24,0,0,1,3.91-16.94,40.69,40.69,0,0,1,10.8-13.46,50.93,50.93,0,0,1,16.36-8.81,65.52,65.52,0,0,1,20.77-3.15,88.06,88.06,0,0,1,14.12,1.08,47,47,0,0,1,12.88,4.07,55.47,55.47,0,0,1,12.54,8.55A100.51,100.51,0,0,1,1605.8,260l-11,9.8q-8.64-14.11-19.35-21a42.4,42.4,0,0,0-34.64-5.31,30.13,30.13,0,0,0-9.14,4.32,20.13,20.13,0,0,0-5.9,6.39,15.54,15.54,0,0,0-2.08,7.81,19.15,19.15,0,0,0,3.82,11.88,40.52,40.52,0,0,0,10,9.22,89.26,89.26,0,0,0,14.13,7.56l16.2,7q8.3,3.57,16.19,7.73a74.59,74.59,0,0,1,14.13,9.55,44,44,0,0,1,10,12.54,34.7,34.7,0,0,1,3.82,16.62,45.53,45.53,0,0,1-3.57,18,39,39,0,0,1-10.8,14.54,53.22,53.22,0,0,1-18.11,9.72q-10.89,3.57-25.5,3.57a89.08,89.08,0,0,1-13.63-1.08,60.2,60.2,0,0,1-14.12-4.07,62.81,62.81,0,0,1-14.29-8.55,78.3,78.3,0,0,1-13.95-14.54l12.29-11.13A129.67,129.67,0,0,0,1521,363.86a58.34,58.34,0,0,0,10.3,9,38.11,38.11,0,0,0,10.8,5.07A44.12,44.12,0,0,0,1554.13,379.47Z"/><path class="cls-3" d="M1723.26,367.35a45.09,45.09,0,0,1-16,16.53q-10.07,6.06-24.68,6.06a31.93,31.93,0,0,1-13.29-2.57,24.62,24.62,0,0,1-9.3-7.23,30.57,30.57,0,0,1-5.4-11.13,55.74,55.74,0,0,1-1.75-14.46V247.72h-26.25v-7.47q12.63,0,20.85-4.57a38.18,38.18,0,0,0,13.46-12.46,65.84,65.84,0,0,0,8.23-18.28q3-10.38,5.15-21.84h8.64v51.83h34v12.79h-34V354.55a15.69,15.69,0,0,0,4.73,11.55,15.9,15.9,0,0,0,11.71,4.74,17.76,17.76,0,0,0,9.31-2.5,27.26,27.26,0,0,0,7.14-6.14Z"/><path class="cls-3" d="M1757.65,157.34a19.65,19.65,0,0,1,6.73,1.17,16.49,16.49,0,0,1,9.3,8.05,12.74,12.74,0,0,1,1.41,5.9,12.39,12.39,0,0,1-1.41,5.74,16.6,16.6,0,0,1-3.74,4.81,18,18,0,0,1-5.56,3.33,18.59,18.59,0,0,1-6.73,1.24,18,18,0,0,1-6.65-1.24,18.27,18.27,0,0,1-5.48-3.33,16.6,16.6,0,0,1-3.74-4.81,12.39,12.39,0,0,1-1.41-5.74,12.74,12.74,0,0,1,1.41-5.9,16.67,16.67,0,0,1,9.22-8.05A19,19,0,0,1,1757.65,157.34ZM1743,240.42l21.1-8.64h8.8V386.62H1743Z"/><path class="cls-3" d="M1874.11,389.94a66.63,66.63,0,0,1-27.91-5.9,72.36,72.36,0,0,1-22.68-16.11,75.8,75.8,0,0,1-15.28-23.84,76.57,76.57,0,0,1-5.57-29.24,85.38,85.38,0,0,1,6.15-32.32,83.34,83.34,0,0,1,16.78-26.41,79.61,79.61,0,0,1,25-17.78,72.85,72.85,0,0,1,30.66-6.56,92.28,92.28,0,0,1,23.51,2.82,68.28,68.28,0,0,1,18.52,7.64,37.87,37.87,0,0,1,12.13,11.47,25.72,25.72,0,0,1,4.32,14.28,12.64,12.64,0,0,1-1.74,6.48,18.23,18.23,0,0,1-4.66,5.24,24.86,24.86,0,0,1-6.48,3.57,20.48,20.48,0,0,1-7.22,1.33,18.5,18.5,0,0,1-7.31-1.41,16.15,16.15,0,0,1-5.57-3.82,18.26,18.26,0,0,1-3.49-5.4,15.49,15.49,0,0,1-1.24-6,42.92,42.92,0,0,0-1.08-9.88,18.24,18.24,0,0,0-4-7.89,19.62,19.62,0,0,0-7.81-5.24,35,35,0,0,0-12.54-1.91,40,40,0,0,0-18.45,4.16,41.69,41.69,0,0,0-13.78,11.21,50.28,50.28,0,0,0-8.64,16.62,67.54,67.54,0,0,0-3,20.35,99.37,99.37,0,0,0,3.73,27.49,73.28,73.28,0,0,0,10.72,22.77A54.41,54.41,0,0,0,1864,361.12a42.32,42.32,0,0,0,21.76,5.73,46.35,46.35,0,0,0,18.36-3.32,43.42,43.42,0,0,0,13.46-9,55.49,55.49,0,0,0,9.8-13.12,129,129,0,0,0,7.23-15.78l9.14,3.65a104.83,104.83,0,0,1-10.3,25.5,76,76,0,0,1-15.29,19,63.09,63.09,0,0,1-19.94,12A68.34,68.34,0,0,1,1874.11,389.94Z"/><path class="cls-3" d="M770.77,189.91h33.06V374h98.86v12.63H770.77Z"/><path class="cls-3" d="M953.19,234.93v108a21.78,21.78,0,0,0,2.66,10.55,29.44,29.44,0,0,0,7.15,8.64,34,34,0,0,0,10.55,5.9,38.57,38.57,0,0,0,13,2.16,27.61,27.61,0,0,0,9.63-1.91,45.15,45.15,0,0,0,10-5.23,60.38,60.38,0,0,0,9.14-7.81,47.19,47.19,0,0,0,7.14-9.47V234.93h30.08V386.62h-30.08V358.21a63.57,63.57,0,0,1-10,12.29,74.16,74.16,0,0,1-13,10.14A71,71,0,0,1,985,387.45a44,44,0,0,1-14,2.49,46.81,46.81,0,0,1-18.69-3.74,48.8,48.8,0,0,1-15.2-10.13,47.48,47.48,0,0,1-10.22-14.95,45,45,0,0,1-3.74-18.2v-108Z"/><path class="cls-3" d="M1087.77,234.93h30.07v28.41a113.75,113.75,0,0,1,13-12,112.35,112.35,0,0,1,14.95-10.05,89,89,0,0,1,15.54-6.9,46.69,46.69,0,0,1,14.62-2.57,41.72,41.72,0,0,1,13.62,2.4,47.3,47.3,0,0,1,22.85,16.87,31.6,31.6,0,0,1,5.56,12.79,50.18,50.18,0,0,1,10.39-12.46A75.73,75.73,0,0,1,1243,241.25a87.25,87.25,0,0,1,16.94-6.9,62.68,62.68,0,0,1,17.53-2.57,35,35,0,0,1,16,3.82,43.38,43.38,0,0,1,13.21,10.3,50,50,0,0,1,9,15.12,50.8,50.8,0,0,1,3.33,18.44V386.62H1288.8V283.78a33.69,33.69,0,0,0-2.16-12.13,33.22,33.22,0,0,0-5.9-10,28.26,28.26,0,0,0-8.64-6.81,22.62,22.62,0,0,0-10.38-2.49,50.64,50.64,0,0,0-12.63,1.66,58.77,58.77,0,0,0-12.29,4.65,61.28,61.28,0,0,0-10.64,6.89,34.66,34.66,0,0,0-7.64,8.4V386.62h-30.07V283.78a32.69,32.69,0,0,0-2.24-12.13,34.52,34.52,0,0,0-6-10,27.87,27.87,0,0,0-8.72-6.81,23.1,23.1,0,0,0-10.46-2.49,43.3,43.3,0,0,0-11.8,1.74,68.16,68.16,0,0,0-22.93,11.63,52.73,52.73,0,0,0-8.47,8.23V386.62h-30.07Z"/><path class="cls-3" d="M1465.41,386.62h-30.24V365.85q-5.33,4.15-10.47,8.39a84,84,0,0,1-11.13,7.73,63.56,63.56,0,0,1-13.29,5.73,58.11,58.11,0,0,1-17,2.24,43,43,0,0,1-16.2-2.91,34.43,34.43,0,0,1-19.93-20,40.44,40.44,0,0,1-2.74-14.95,38.9,38.9,0,0,1,3.9-17.61,49,49,0,0,1,10.63-14,77,77,0,0,1,15.62-11.05,154.2,154.2,0,0,1,19-8.64q10.14-3.81,20.77-6.72t20.77-5.57V279a62.11,62.11,0,0,0-2.08-17.36,30.22,30.22,0,0,0-5.9-11.47,21.65,21.65,0,0,0-9.22-6.31,36.56,36.56,0,0,0-12.21-1.91,33,33,0,0,0-12.46,2,19.43,19.43,0,0,0-7.56,5.24,17.69,17.69,0,0,0-3.74,7.31,35.35,35.35,0,0,0-1,8.39,42.92,42.92,0,0,1-.67,7.64A19.62,19.62,0,0,1,1378,279a12.38,12.38,0,0,1-4.57,4.49,14.84,14.84,0,0,1-7.4,1.66,14.38,14.38,0,0,1-11.38-5.07,18.7,18.7,0,0,1-4.4-12.71,23,23,0,0,1,4.9-14,42.22,42.22,0,0,1,13.29-11.3,77,77,0,0,1,19.52-7.47,97.53,97.53,0,0,1,23.43-2.74q15,0,25.25,2.9t16.7,8.14a29.86,29.86,0,0,1,9.22,12.71,46.82,46.82,0,0,1,2.83,16.62Zm-30.24-88.39a201.74,201.74,0,0,0-20.44,7.56,132,132,0,0,0-19.6,10.38,64.22,64.22,0,0,0-14.79,12.88q-5.82,7.06-5.81,15a27,27,0,0,0,2.07,10.46,30.09,30.09,0,0,0,5.49,8.73,27.25,27.25,0,0,0,7.81,6,20.07,20.07,0,0,0,9.22,2.24,34.54,34.54,0,0,0,9.72-1.33,48.92,48.92,0,0,0,8.88-3.57,73.33,73.33,0,0,0,8.64-5.32q4.32-3.07,8.81-6.39Z"/><path class="cls-3" d="M1554.13,379.47a32.83,32.83,0,0,0,11.38-1.91,29.31,29.31,0,0,0,9-5.06,24.9,24.9,0,0,0,5.9-7.15,17.3,17.3,0,0,0,2.16-8.3,21.13,21.13,0,0,0-3.49-12.13,37.82,37.82,0,0,0-9.22-9.31,80.18,80.18,0,0,0-13-7.56q-7.3-3.39-14.86-7t-14.87-7.73a65.44,65.44,0,0,1-13-9.64,44.17,44.17,0,0,1-9.22-12.62,38.32,38.32,0,0,1-3.49-16.95,37.24,37.24,0,0,1,3.91-16.94,40.69,40.69,0,0,1,10.8-13.46,50.93,50.93,0,0,1,16.36-8.81,65.52,65.52,0,0,1,20.77-3.15,88.06,88.06,0,0,1,14.12,1.08,47,47,0,0,1,12.88,4.07,55.47,55.47,0,0,1,12.54,8.55A100.51,100.51,0,0,1,1605.8,260l-11,9.8q-8.64-14.11-19.35-21a42.4,42.4,0,0,0-34.64-5.31,30.13,30.13,0,0,0-9.14,4.32,20.13,20.13,0,0,0-5.9,6.39,15.54,15.54,0,0,0-2.08,7.81,19.15,19.15,0,0,0,3.82,11.88,40.52,40.52,0,0,0,10,9.22,89.26,89.26,0,0,0,14.13,7.56l16.2,7q8.3,3.57,16.19,7.73a74.59,74.59,0,0,1,14.13,9.55,44,44,0,0,1,10,12.54,34.7,34.7,0,0,1,3.82,16.62,45.53,45.53,0,0,1-3.57,18,39,39,0,0,1-10.8,14.54,53.22,53.22,0,0,1-18.11,9.72q-10.89,3.57-25.5,3.57a89.08,89.08,0,0,1-13.63-1.08,60.2,60.2,0,0,1-14.12-4.07,62.81,62.81,0,0,1-14.29-8.55,78.3,78.3,0,0,1-13.95-14.54l12.29-11.13A129.67,129.67,0,0,0,1521,363.86a58.34,58.34,0,0,0,10.3,9,38.11,38.11,0,0,0,10.8,5.07A44.12,44.12,0,0,0,1554.13,379.47Z"/><path class="cls-3" d="M1723.26,367.35a45.09,45.09,0,0,1-16,16.53q-10.07,6.06-24.68,6.06a31.93,31.93,0,0,1-13.29-2.57,24.62,24.62,0,0,1-9.3-7.23,30.57,30.57,0,0,1-5.4-11.13,55.74,55.74,0,0,1-1.75-14.46V247.72h-26.25v-7.47q12.63,0,20.85-4.57a38.18,38.18,0,0,0,13.46-12.46,65.84,65.84,0,0,0,8.23-18.28q3-10.38,5.15-21.84h8.64v51.83h34v12.79h-34V354.55a15.69,15.69,0,0,0,4.73,11.55,15.9,15.9,0,0,0,11.71,4.74,17.76,17.76,0,0,0,9.31-2.5,27.26,27.26,0,0,0,7.14-6.14Z"/><path class="cls-3" d="M1757.65,157.34a19.65,19.65,0,0,1,6.73,1.17,16.49,16.49,0,0,1,9.3,8.05,12.74,12.74,0,0,1,1.41,5.9,12.39,12.39,0,0,1-1.41,5.74,16.6,16.6,0,0,1-3.74,4.81,18,18,0,0,1-5.56,3.33,18.59,18.59,0,0,1-6.73,1.24,18,18,0,0,1-6.65-1.24,18.27,18.27,0,0,1-5.48-3.33,16.6,16.6,0,0,1-3.74-4.81,12.39,12.39,0,0,1-1.41-5.74,12.74,12.74,0,0,1,1.41-5.9,16.67,16.67,0,0,1,9.22-8.05A19,19,0,0,1,1757.65,157.34ZM1743,240.42l21.1-8.64h8.8V386.62H1743Z"/><path class="cls-3" d="M1874.11,389.94a66.63,66.63,0,0,1-27.91-5.9,72.36,72.36,0,0,1-22.68-16.11,75.8,75.8,0,0,1-15.28-23.84,76.57,76.57,0,0,1-5.57-29.24,85.38,85.38,0,0,1,6.15-32.32,83.34,83.34,0,0,1,16.78-26.41,79.61,79.61,0,0,1,25-17.78,72.85,72.85,0,0,1,30.66-6.56,92.28,92.28,0,0,1,23.51,2.82,68.28,68.28,0,0,1,18.52,7.64,37.87,37.87,0,0,1,12.13,11.47,25.72,25.72,0,0,1,4.32,14.28,12.64,12.64,0,0,1-1.74,6.48,18.23,18.23,0,0,1-4.66,5.24,24.86,24.86,0,0,1-6.48,3.57,20.48,20.48,0,0,1-7.22,1.33,18.5,18.5,0,0,1-7.31-1.41,16.15,16.15,0,0,1-5.57-3.82,18.26,18.26,0,0,1-3.49-5.4,15.49,15.49,0,0,1-1.24-6,42.92,42.92,0,0,0-1.08-9.88,18.24,18.24,0,0,0-4-7.89,19.62,19.62,0,0,0-7.81-5.24,35,35,0,0,0-12.54-1.91,40,40,0,0,0-18.45,4.16,41.69,41.69,0,0,0-13.78,11.21,50.28,50.28,0,0,0-8.64,16.62,67.54,67.54,0,0,0-3,20.35,99.37,99.37,0,0,0,3.73,27.49,73.28,73.28,0,0,0,10.72,22.77A54.41,54.41,0,0,0,1864,361.12a42.32,42.32,0,0,0,21.76,5.73,46.35,46.35,0,0,0,18.36-3.32,43.42,43.42,0,0,0,13.46-9,55.49,55.49,0,0,0,9.8-13.12,129,129,0,0,0,7.23-15.78l9.14,3.65a104.83,104.83,0,0,1-10.3,25.5,76,76,0,0,1-15.29,19,63.09,63.09,0,0,1-19.94,12A68.34,68.34,0,0,1,1874.11,389.94Z"/></g></svg>