<svg xmlns="http://www.w3.org/2000/svg" viewBox="0 0 595.35 597.67"><defs><style>.cls-1,.cls-2{fill:none;stroke:#fecf2f;stroke-width:20px;}.cls-1{stroke-linejoin:round;}.cls-2{stroke-miterlimit:10;}</style></defs><title>Symbol</title><g id="ENDLESS_Copy" data-name="ENDLESS Copy"><path class="cls-1" d="M153.8,154.89a142.27,142.27,0,0,0,27.71,102.19,141.71,141.71,0,0,0,73.91-74.9A141.79,141.79,0,0,0,153.8,154.89Z"/><path class="cls-1" d="M157.8,208.68a140.81,140.81,0,0,1-4-53.79,142.25,142.25,0,0,0-39,10.38,141.52,141.52,0,0,0-75,75.45,141.61,141.61,0,0,0,102.79,27.1A137.33,137.33,0,0,0,161.84,264a140.27,140.27,0,0,0,19.67-6.93A141.75,141.75,0,0,1,157.8,208.68Z"/><path class="cls-1" d="M261.54,90.07a140.84,140.84,0,0,0-23.75-48.42,141.69,141.69,0,0,0-84,113.24,141.79,141.79,0,0,1,101.62,27.29,141.2,141.2,0,0,0,6.12-92.11Z"/><circle class="cls-2" cx="297.67" cy="298.84" r="94.54"/><circle class="cls-2" cx="297.67" cy="298.84" r="275.86"/><path class="cls-1" d="M340.58,182.18a141.69,141.69,0,0,0,73.9,74.9,142.14,142.14,0,0,0,27.71-102.19A141.75,141.75,0,0,0,340.58,182.18Z"/><path class="cls-1" d="M414.48,257.08A140.72,140.72,0,0,0,434.15,264a137.33,137.33,0,0,0,19.25,3.81,141.64,141.64,0,0,0,102.8-27.1,141.54,141.54,0,0,0-75-75.45,139,139,0,0,0-18.49-6.41,137.5,137.5,0,0,0-20.48-4,142.14,142.14,0,0,1-27.71,102.19Z"/><path class="cls-1" d="M330.44,143.89a142.34,142.34,0,0,0,10.14,38.29,141.75,141.75,0,0,1,101.61-27.29,141.61,141.61,0,0,0-84-113.24,142.35,142.35,0,0,0-27.76,102.24Z"/><path class="cls-1" d="M255.42,415.78a141.69,141.69,0,0,0-73.91-74.91A142.3,142.3,0,0,0,153.8,443.06,141.74,141.74,0,0,0,255.42,415.78Z"/><path class="cls-1" d="M181.51,340.87a142.86,142.86,0,0,0-19.67-6.93,138.79,138.79,0,0,0-19.25-3.81A141.61,141.61,0,0,0,39.8,357.24a141.56,141.56,0,0,0,93.52,81.86,137.71,137.71,0,0,0,20.48,4,142.3,142.3,0,0,1,27.71-102.19Z"/><path class="cls-1" d="M265.55,454.07a142.33,142.33,0,0,0-10.13-38.29A141.74,141.74,0,0,1,153.8,443.06a141.68,141.68,0,0,0,84,113.25,142.26,142.26,0,0,0,27.76-102.24Z"/><path class="cls-1" d="M442.19,443.06a142.18,142.18,0,0,0-27.71-102.19,141.67,141.67,0,0,0-73.9,74.91A141.7,141.7,0,0,0,442.19,443.06Z"/><path class="cls-1" d="M438.2,389.28a140.77,140.77,0,0,1,4,53.78,137.46,137.46,0,0,0,20.48-4,141.59,141.59,0,0,0,93.53-81.86,141.65,141.65,0,0,0-102.8-27.11,138.79,138.79,0,0,0-19.25,3.81,143.33,143.33,0,0,0-19.67,6.93A141.64,141.64,0,0,1,438.2,389.28Z"/><path class="cls-1" d="M334.46,507.88a140.87,140.87,0,0,0,23.74,48.43,141.59,141.59,0,0,0,73.41-73.77,143.09,143.09,0,0,0,10.58-39.48,141.7,141.7,0,0,1-101.61-27.28,141,141,0,0,0-6.12,92.1Z"/></g></svg>